<svg width="119" height="34" viewBox="0 0 119 34" fill="none" xmlns="http://www.w3.org/2000/svg">
<path d="M2.43197 28C2.3253 28 2.2293 27.968 2.14397 27.904C2.07997 27.8187 2.04797 27.7227 2.04797 27.616V5.98398C2.04797 5.87731 2.07997 5.79198 2.14397 5.72798C2.2293 5.64265 2.3253 5.59998 2.43197 5.59998H9.05597C11.1253 5.59998 12.7787 6.17598 14.016 7.32798C15.2747 8.47998 15.904 10.016 15.904 11.936V21.664C15.904 23.584 15.2747 25.12 14.016 26.272C12.7787 27.424 11.1253 28 9.05597 28H2.43197ZM5.75997 24.64C5.75997 24.7467 5.8133 24.8 5.91997 24.8L9.08797 24.768C10.0053 24.768 10.7413 24.4587 11.296 23.84C11.8507 23.2 12.1493 22.336 12.192 21.248V12.352C12.192 11.264 11.904 10.4 11.328 9.75998C10.7733 9.11998 10.0267 8.79998 9.08797 8.79998H5.91997C5.8133 8.79998 5.75997 8.85331 5.75997 8.95998V24.64ZM24.991 11.392C26.207 11.392 27.2843 11.6267 28.223 12.096C29.1617 12.544 29.887 13.1733 30.399 13.984C30.9323 14.7947 31.199 15.7227 31.199 16.768V27.616C31.199 27.7227 31.1563 27.8187 31.071 27.904C31.007 27.968 30.9217 28 30.815 28H27.871C27.7643 28 27.6683 27.968 27.583 27.904C27.519 27.8187 27.487 27.7227 27.487 27.616V26.816C27.487 26.752 27.4657 26.7093 27.423 26.688C27.3803 26.6667 27.3377 26.6773 27.295 26.72C26.399 27.744 25.1083 28.256 23.423 28.256C22.015 28.256 20.8203 27.8827 19.839 27.136C18.8577 26.368 18.367 25.1307 18.367 23.424C18.367 21.632 18.9323 20.2987 20.063 19.424C21.215 18.5493 22.7937 18.112 24.799 18.112H27.327C27.4337 18.112 27.487 18.0587 27.487 17.952V17.152C27.487 16.3627 27.263 15.744 26.815 15.296C26.3883 14.8267 25.791 14.592 25.023 14.592C24.4043 14.592 23.8923 14.7413 23.487 15.04C23.103 15.3173 22.8577 15.7013 22.751 16.192C22.687 16.4267 22.5377 16.544 22.303 16.544L19.199 16.352C19.0923 16.352 18.9963 16.32 18.911 16.256C18.847 16.1707 18.8257 16.0853 18.847 16C18.975 14.6347 19.6043 13.5253 20.735 12.672C21.887 11.8187 23.3057 11.392 24.991 11.392ZM24.383 25.248C25.215 25.248 25.9403 25.0133 26.559 24.544C27.1777 24.0533 27.487 23.4133 27.487 22.624V20.96C27.487 20.8533 27.4337 20.8 27.327 20.8H25.183C24.2443 20.8 23.4977 21.0027 22.943 21.408C22.4097 21.8133 22.143 22.4 22.143 23.168C22.143 23.8507 22.3457 24.3733 22.751 24.736C23.1777 25.0773 23.7217 25.248 24.383 25.248ZM42.0033 14.08C42.0033 14.1867 41.9606 14.2827 41.8753 14.368C41.8113 14.432 41.7259 14.464 41.6193 14.464H39.0273C38.9206 14.464 38.8673 14.5173 38.8673 14.624V22.656C38.8673 23.4453 39.0166 24.0107 39.3153 24.352C39.6353 24.672 40.1259 24.8213 40.7873 24.8H41.3633C41.4699 24.8 41.5553 24.8427 41.6193 24.928C41.7046 24.992 41.7473 25.0773 41.7473 25.184V27.616C41.7473 27.8507 41.6193 27.9893 41.3633 28.032H40.0193C38.4406 28.032 37.2566 27.7547 36.4673 27.2C35.6779 26.6453 35.2833 25.6 35.2833 24.064V14.624C35.2833 14.5173 35.2299 14.464 35.1233 14.464H33.6513C33.5446 14.464 33.4486 14.432 33.3633 14.368C33.2993 14.2827 33.2673 14.1867 33.2673 14.08V12.032C33.2673 11.9253 33.2993 11.84 33.3633 11.776C33.4486 11.6907 33.5446 11.648 33.6513 11.648H35.1233C35.2299 11.648 35.2833 11.5947 35.2833 11.488V7.83998C35.2833 7.73331 35.3153 7.64798 35.3793 7.58398C35.4646 7.49865 35.5606 7.45598 35.6673 7.45598H38.4833C38.5899 7.45598 38.6753 7.49865 38.7393 7.58398C38.8246 7.64798 38.8673 7.73331 38.8673 7.83998V11.488C38.8673 11.5947 38.9206 11.648 39.0273 11.648H41.6193C41.7259 11.648 41.8113 11.6907 41.8753 11.776C41.9606 11.84 42.0033 11.9253 42.0033 12.032V14.08ZM53.2713 12.032C53.2713 11.9253 53.3033 11.84 53.3673 11.776C53.4526 11.6907 53.5486 11.648 53.6553 11.648H56.5993C56.7059 11.648 56.7913 11.6907 56.8553 11.776C56.9406 11.84 56.9833 11.9253 56.9833 12.032V27.616C56.9833 27.7227 56.9406 27.8187 56.8553 27.904C56.7913 27.968 56.7059 28 56.5993 28H53.6553C53.5486 28 53.4526 27.968 53.3673 27.904C53.3033 27.8187 53.2713 27.7227 53.2713 27.616V26.752C53.2713 26.688 53.2499 26.656 53.2073 26.656C53.1646 26.6347 53.1219 26.656 53.0793 26.72C52.3539 27.7227 51.2126 28.224 49.6553 28.224C48.2046 28.224 46.9993 27.7973 46.0393 26.944C45.0793 26.0693 44.5993 24.8 44.5993 23.136V12.032C44.5993 11.9253 44.6313 11.84 44.6953 11.776C44.7806 11.6907 44.8766 11.648 44.9833 11.648H47.9273C48.0339 11.648 48.1193 11.6907 48.1833 11.776C48.2686 11.84 48.3113 11.9253 48.3113 12.032V22.208C48.3113 23.104 48.5139 23.808 48.9193 24.32C49.3459 24.8107 49.9539 25.056 50.7433 25.056C51.5326 25.056 52.1513 24.8 52.5993 24.288C53.0473 23.7547 53.2713 23.04 53.2713 22.144V12.032ZM76.2875 11.392C77.8022 11.392 78.9648 11.8827 79.7755 12.864C80.6075 13.8453 81.0235 15.2107 81.0235 16.96V27.616C81.0235 27.7227 80.9808 27.8187 80.8955 27.904C80.8315 27.968 80.7462 28 80.6395 28H77.7275C77.6208 28 77.5248 27.968 77.4395 27.904C77.3755 27.8187 77.3435 27.7227 77.3435 27.616V17.472C77.3435 16.576 77.1302 15.872 76.7035 15.36C76.2768 14.848 75.7115 14.592 75.0075 14.592C74.2608 14.592 73.6635 14.848 73.2155 15.36C72.7888 15.872 72.5755 16.5653 72.5755 17.44V27.616C72.5755 27.7227 72.5328 27.8187 72.4475 27.904C72.3835 27.968 72.2982 28 72.1915 28H69.2475C69.1408 28 69.0448 27.968 68.9595 27.904C68.8955 27.8187 68.8635 27.7227 68.8635 27.616V17.472C68.8635 16.576 68.6502 15.872 68.2235 15.36C67.7968 14.848 67.2315 14.592 66.5275 14.592C65.7808 14.592 65.1835 14.848 64.7355 15.36C64.3088 15.872 64.0955 16.5653 64.0955 17.44V27.616C64.0955 27.7227 64.0528 27.8187 63.9675 27.904C63.9035 27.968 63.8182 28 63.7115 28H60.7995C60.6928 28 60.5968 27.968 60.5115 27.904C60.4475 27.8187 60.4155 27.7227 60.4155 27.616V12.032C60.4155 11.9253 60.4475 11.84 60.5115 11.776C60.5968 11.6907 60.6928 11.648 60.7995 11.648H63.7115C63.8182 11.648 63.9035 11.6907 63.9675 11.776C64.0528 11.84 64.0955 11.9253 64.0955 12.032V12.832C64.0955 12.896 64.1168 12.9387 64.1595 12.96C64.2022 12.96 64.2448 12.9387 64.2875 12.896C65.1622 11.8933 66.3462 11.392 67.8395 11.392C68.7782 11.392 69.5888 11.5947 70.2715 12C70.9542 12.384 71.4875 12.9387 71.8715 13.664C71.9142 13.7067 71.9568 13.728 71.9995 13.728C72.0422 13.728 72.0742 13.6853 72.0955 13.6C72.5862 12.832 73.1942 12.2773 73.9195 11.936C74.6662 11.5733 75.4555 11.392 76.2875 11.392Z" fill="#5856D6"/>
<path d="M102.536 28C102.301 28 102.152 27.8933 102.088 27.68L101.256 24.256C101.235 24.1707 101.181 24.128 101.096 24.128H94.504C94.4187 24.128 94.3653 24.1707 94.344 24.256L93.544 27.68C93.48 27.8933 93.3307 28 93.096 28H90.056C89.7787 28 89.672 27.8613 89.736 27.584L95.56 5.91998C95.624 5.70665 95.7733 5.59998 96.008 5.59998H99.656C99.8907 5.59998 100.04 5.70665 100.104 5.91998L105.928 27.584L105.96 27.712C105.96 27.904 105.843 28 105.608 28H102.536ZM95.112 21.024C95.0907 21.088 95.1013 21.1413 95.144 21.184C95.1867 21.2053 95.2293 21.216 95.272 21.216H100.328C100.371 21.216 100.413 21.2053 100.456 21.184C100.499 21.1413 100.509 21.088 100.488 21.024L97.864 10.528C97.8427 10.464 97.8107 10.432 97.768 10.432C97.7253 10.432 97.6933 10.464 97.672 10.528L95.112 21.024ZM109.088 28C108.982 28 108.886 27.968 108.8 27.904C108.736 27.8187 108.704 27.7227 108.704 27.616V5.98398C108.704 5.87731 108.736 5.79198 108.8 5.72798C108.886 5.64265 108.982 5.59998 109.088 5.59998H112.032C112.139 5.59998 112.224 5.64265 112.288 5.72798C112.374 5.79198 112.416 5.87731 112.416 5.98398V27.616C112.416 27.7227 112.374 27.8187 112.288 27.904C112.224 27.968 112.139 28 112.032 28H109.088Z" fill="#5856D6"/>
</svg>
